# xmcd
#
# Track frame offsets:
#	150
#	31267
#	57799
#	77393
#	115955
#	143269
#	173830
#
# Disc length: 3005 seconds
#
# Revision: 1
# Processed by: cddbd v1.5PL3 Copyright (c) Steve Scherf et al.
# Submitted via: audiograbber 1.82.01
#
DISCID=480bbb07
DTITLE=Kenny Wayne Shepherd Band - House Of Blues - Live CD 2
DYEAR=1998
DGENRE=Blues
TTITLE0=Somehow Somewhere Someway
TTITLE1=Blue On Black
TTITLE2=Slow Ride
TTITLE3=While We Cry
TTITLE4=All Right Orlando
TTITLE5=Deja Voodoo
TTITLE6=Hendrix Medley
EXTD=
EXTT0=
EXTT1=
EXTT2=
EXTT3=
EXTT4=
EXTT5=
EXTT6=
PLAYORDER=
